<?xml version="1.0" encoding="UTF-8" standalone="no"?>
<svg
   width="108"
   height="18"
   viewBox="0 0 108 18"
   fill="none"
   version="1.1"
   id="svg31"
   sodipodi:docname="els_alt.svg"
   inkscape:version="1.1 (c68e22c387, 2021-05-23)"
   xmlns:inkscape="http://www.inkscape.org/namespaces/inkscape"
   xmlns:sodipodi="http://sodipodi.sourceforge.net/DTD/sodipodi-0.dtd"
   xmlns="http://www.w3.org/2000/svg"
   xmlns:svg="http://www.w3.org/2000/svg">
  <sodipodi:namedview
     id="namedview33"
     pagecolor="#ffffff"
     bordercolor="#666666"
     borderopacity="1.0"
     inkscape:pageshadow="2"
     inkscape:pageopacity="0.64705882"
     inkscape:pagecheckerboard="0"
     showgrid="false"
     inkscape:zoom="12.192011"
     inkscape:cx="36.540322"
     inkscape:cy="14.230631"
     inkscape:window-width="1920"
     inkscape:window-height="1001"
     inkscape:window-x="-9"
     inkscape:window-y="-9"
     inkscape:window-maximized="1"
     inkscape:current-layer="g8773" />
  <g
     clip-path="url(#clip0)"
     id="g24">
    <g
       id="g8782">
      <path
         d="m 76.373703,14.3932 -4.05434,3.5725 c -5.93483,-0.2405 -9.40256,-1.7004 -9.40256,-6.2347 h 4.52013 c 0,1.8549 1.51821,2.6965 7.24597,2.6965 0.6211,0 1.1904,0 1.6908,-0.0343 z"
         fill="white"
         id="path2"
         style="fill:#1e8de1;fill-opacity:1" />
      <path
         d="m 84.637403,5.97712 h -4.5202 c 0,-1.92366 -1.9322,-2.40458 -6.6421,-2.40458 -0.4141,0 -0.81091,0 -1.15596,0.01718 l 3.98526,-3.5209944 c 5.2448,0.3606874 8.333,2.1125944 8.333,5.9083944 z"
         fill="white"
         id="path4"
         style="fill:#1e8de1;fill-opacity:1" />
      <path
         d="m 80.445103,13.5344 c 0.2933,-0.2576 0.4313,-0.6012 0.4313,-0.9962 0,-1.4599 -1.0006,-1.7004 -6.7112,-1.9752 -7.66006,-0.3607 -10.713732,-1.54579 -10.713732,-5.47899 0,-3.70993 3.657512,-4.98092 9.833832,-5.0667981 L 68.558183,4.15652 c -0.43131,0.32634 -0.58658,0.6355 -0.58658,1.13359 0,1.35687 1.05239,1.59733 6.1764,1.90649 6.9354,0.37786 11.2313,0.75573 11.2313,5.187 0,4.4485 -4.0198,5.5134 -10.0064,5.6164"
         fill="white"
         id="path6"
         style="fill:#e1731e;fill-opacity:1" />
    </g>
    <g
       id="g8777"
       style="fill:#1e8de1;fill-opacity:1">
      <rect
         style="fill:#1e8de1;fill-opacity:1;stroke-width:1.00158"
         id="rect7879"
         width="20"
         height="3.888"
         x="37.862854"
         y="13.887175"
         ry="1.944" />
      <rect
         style="fill:#1e8de1;fill-opacity:1;stroke-width:0.995154"
         id="rect7879-9"
         width="17.513"
         height="4.383337"
         x="0.26216647"
         y="-42.246189"
         transform="rotate(90)"
         ry="2.1916685" />
      <rect
         style="fill:#1e8de1;fill-opacity:1;stroke-width:0.995154"
         id="rect7879-9-5"
         width="17.513008"
         height="4.383337"
         x="0.26190925"
         y="-14.614751"
         transform="rotate(90)"
         ry="2.1916685" />
    </g>
    <g
       id="g8773"
       style="fill:#1e1e1e;fill-opacity:1">
      <rect
         style="fill:#1e8de1;fill-opacity:1;stroke-width:1.30849"
         id="rect4295"
         width="21.927999"
         height="3.8879175"
         x="10.263996"
         y="0.26222625"
         ry="1.9439588"
         rx="2.2920275" />
      <rect
         style="fill:#e1731e;fill-opacity:1;stroke-width:1.05674"
         id="rect4295-4"
         width="14.302"
         height="3.8879175"
         x="16.520191"
         y="7.2548447"
         ry="1.9439588"
         rx="1.4949187" />
      <rect
         style="fill:#1e8de1;fill-opacity:1;stroke-width:1.30849"
         id="rect4295-4-2"
         width="21.927999"
         height="3.8879175"
         x="10.231416"
         y="13.887"
         ry="1.9439588"
         rx="2.2920275" />
    </g>
  </g>
  <defs
     id="defs29">
    <clipPath
       id="clip0">
      <rect
         width="108"
         height="18"
         fill="white"
         id="rect26" />
    </clipPath>
  </defs>
</svg>
